<svg width="5060" height="2267" viewBox="0 0 5060 2267" fill="none" xmlns="http://www.w3.org/2000/svg">
<path d="M1177.48 2262.22L1181.96 264.301V246.392H0V0.151539H1468.49V259.824V2262.22H1177.48Z" fill="#DE5F5A"/>
<path d="M2921.59 2266.69V268.778V250.869H1739.63V4.6286H3208.12V264.301L3212.6 2266.69H2921.59Z" fill="#DE5F5A"/>
<path d="M4263 0.104927C4357.02 0.851134 4451.04 18.7596 4545.06 53.8302C4639.08 88.901 4724.89 147.104 4802.49 228.438C4880.1 309.026 4942.4 419.088 4989.41 558.625C5036.42 698.161 5059.93 873.142 5059.93 1083.57C5059.93 1287.27 5059.93 1633.03 5059.93 1633.03V2017.52V2261.42H4802.49V2177.13L4800.25 1894.99C4800.25 1894.99 4800.25 1504.41 4800.25 1222.36H4782.35C4740.56 1285.04 4690.94 1339.14 4633.48 1384.65C4576.03 1430.17 4512.23 1465.24 4442.09 1489.86C4371.94 1514.49 4297.33 1526.8 4218.23 1526.8C4086.9 1526.8 3966.39 1494.34 3856.7 1429.42C3747.76 1363.76 3660.46 1273.84 3594.79 1159.68C3529.87 1044.76 3497.41 913.436 3497.41 765.691C3497.41 625.409 3528.75 497.064 3591.43 380.66C3654.86 263.509 3743.66 170.235 3857.82 100.84C3972.73 31.4449 4107.79 -2.13357 4263 0.104927ZM4263 246.346C4168.98 246.346 4084.29 269.851 4008.92 316.861C3934.31 363.124 3874.98 425.804 3830.96 504.899C3787.68 583.249 3766.04 670.18 3766.04 765.691C3766.04 861.203 3786.93 948.134 3828.72 1026.48C3871.25 1104.09 3929.08 1166.02 4002.21 1212.28C4076.08 1257.8 4160.03 1280.56 4254.05 1280.56C4324.93 1280.56 4390.97 1266.75 4452.16 1239.15C4513.35 1210.79 4566.7 1172.36 4612.22 1123.86C4658.48 1074.61 4694.67 1019.02 4720.79 957.088C4746.9 894.409 4759.96 829.117 4759.96 761.214C4759.96 671.672 4738.32 587.726 4695.04 509.377C4652.51 431.027 4593.56 367.601 4518.2 319.099C4443.58 270.597 4358.51 246.346 4263 246.346Z" fill="#DE5F5A"/>
</svg>
