<svg width="5281" height="2306" viewBox="0 0 5281 2306" fill="none" xmlns="http://www.w3.org/2000/svg">
<rect width="5280.22" height="2306" fill="#232830"/>
<path d="M1197.13 2281.87L1201.61 283.955V266.047H19.6523V19.8058H1488.15V279.478V2281.87H1197.13Z" fill="#DE5F5A"/>
<path d="M2941.24 2286.35V288.432V270.524H1759.28V24.2829H3227.78V283.955L3232.25 2286.35H2941.24Z" fill="#DE5F5A"/>
<path d="M4282.65 19.7592C4376.67 20.5054 4470.69 38.4139 4564.71 73.4845C4658.73 108.555 4744.54 166.758 4822.15 248.092C4899.75 328.68 4962.06 438.743 5009.06 578.279C5056.07 717.816 5079.58 892.797 5079.58 1103.22C5079.58 1306.93 5079.58 1652.69 5079.58 1652.69V2037.17V2281.07H4822.15V2196.79L4819.91 1914.65C4819.91 1914.65 4819.91 1524.07 4819.91 1242.01H4802C4760.21 1304.69 4710.59 1358.79 4653.13 1404.31C4595.68 1449.82 4531.88 1484.89 4461.74 1509.52C4391.6 1534.14 4316.98 1546.46 4237.88 1546.46C4106.55 1546.46 3986.04 1514 3876.36 1449.08C3767.41 1383.41 3680.11 1293.5 3614.44 1179.33C3549.53 1064.42 3517.07 933.09 3517.07 785.346C3517.07 645.063 3548.41 516.719 3611.09 400.314C3674.51 283.163 3763.31 189.889 3877.47 120.494C3992.39 51.0992 4127.45 17.5207 4282.65 19.7592ZM4282.65 266C4188.63 266 4103.94 289.505 4028.58 336.515C3953.96 382.778 3894.64 445.458 3850.61 524.554C3807.33 602.903 3785.69 689.834 3785.69 785.346C3785.69 880.857 3806.59 967.788 3848.37 1046.14C3890.91 1123.74 3948.74 1185.67 4021.86 1231.94C4095.73 1277.45 4179.68 1300.21 4273.7 1300.21C4344.59 1300.21 4410.62 1286.41 4471.81 1258.8C4533 1230.45 4586.35 1192.02 4631.87 1143.51C4678.13 1094.27 4714.32 1038.68 4740.44 976.742C4766.55 914.063 4779.61 848.771 4779.61 780.869C4779.61 691.326 4757.97 607.38 4714.69 529.031C4672.16 450.682 4613.21 387.256 4537.85 338.754C4463.23 290.252 4378.17 266 4282.65 266Z" fill="#DE5F5A"/>
</svg>
